HIERARCHY
ROOT Hips
{
    OFFSET 0.000000 0.000000 0.000000
    CHANNELS 6 Xposition Yposition Zposition Zrotation Xrotation Yrotation
    JOINT Spine
    {
        OFFSET -0.000000 8.172037 0.000000
        CHANNELS 3 Zrotation Xrotation Yrotation
        JOINT Spine1
        {
            OFFSET -0.000000 18.392342 0.000000
            CHANNELS 3 Zrotation Xrotation Yrotation
            JOINT Neck
            {
                OFFSET -0.000000 18.316809 1.665164
                CHANNELS 3 Zrotation Xrotation Yrotation
                JOINT Head
                {
                    OFFSET -0.000000 13.952258 -1.993180
                    CHANNELS 3 Zrotation Xrotation Yrotation
                    End Site
                    {
                        OFFSET -0.000000 24.914745 0.000000
                    }
                }
            }
            JOINT LeftShoulder
            {
                OFFSET 4.035833 16.062790 -0.310290
                CHANNELS 3 Zrotation Xrotation Yrotation
                JOINT LeftArm
                {
                    OFFSET 12.395579 0.000000 0.000000
                    CHANNELS 3 Zrotation Xrotation Yrotation
                    JOINT LeftForeArm
                    {
                        OFFSET 26.414022 0.000000 0.000000
                        CHANNELS 3 Zrotation Xrotation Yrotation
                        JOINT LeftHand
                        {
                            OFFSET 28.641636 0.000000 0.000000
                            CHANNELS 3 Zrotation Xrotation Yrotation
                            End Site
                            {
                                OFFSET 14.948848 0.000000 0.000000
                            }
                        }
                    }
                }
            }
            JOINT RightShoulder
            {
                OFFSET -3.919767 16.062790 -0.310290
                CHANNELS 3 Zrotation Xrotation Yrotation
                JOINT RightArm
                {
                    OFFSET -12.395579 0.000000 0.000000
                    CHANNELS 3 Zrotation Xrotation Yrotation
                    JOINT RightForeArm
                    {
                        OFFSET -26.414022 0.000000 0.000000
                        CHANNELS 3 Zrotation Xrotation Yrotation
                        JOINT RightHand
                        {
                            OFFSET -28.641636 0.000000 0.000000
                            CHANNELS 3 Zrotation Xrotation Yrotation
                            End Site
                            {
                                OFFSET -14.948848 0.000000 0.000000
                            }
                        }
                    }
                }
            }
        }
    }
    JOINT LeftUpLeg
    {
        OFFSET 9.965899 0.000000 0.000000
        CHANNELS 3 Zrotation Xrotation Yrotation
        JOINT LeftLeg
        {
            OFFSET -0.000000 -49.671295 0.000000
            CHANNELS 3 Zrotation Xrotation Yrotation
            JOINT LeftFoot
            {
                OFFSET -0.000000 -36.155865 0.000000
                CHANNELS 3 Zrotation Xrotation Yrotation
                JOINT LeftToeBase
                {
                    OFFSET -0.000000 -6.477834 14.948848
                    CHANNELS 3 Zrotation Xrotation Yrotation
                    End Site
                    {
                        OFFSET -0.000000 0.000000 3.986359
                    }
                }
            }
        }
    }
    JOINT RightUpLeg
    {
        OFFSET -9.965899 0.000000 0.000000
        CHANNELS 3 Zrotation Xrotation Yrotation
        JOINT RightLeg
        {
            OFFSET -0.000000 -49.671295 0.000000
            CHANNELS 3 Zrotation Xrotation Yrotation
            JOINT RightFoot
            {
                OFFSET -0.000000 -36.155865 0.000000
                CHANNELS 3 Zrotation Xrotation Yrotation
                JOINT RightToeBase
                {
                    OFFSET -0.000000 -6.477834 14.948848
                    CHANNELS 3 Zrotation Xrotation Yrotation
                    End Site
                    {
                        OFFSET -0.000000 0.000000 3.986359
                    }
                }
            }
        }
    }
}
MOTION
Frames:    11
Frame Time:    0.010000
-7.977679    98.849754    149.475266    -0.298822    3.107053    177.689957    -2.933054    -0.472927    0.854573    -2.540270    -14.416557    0.545304    11.834193    22.554502    -1.407386    -3.558418    22.175945    -0.551564    15.053294    1.914763    -19.079590    -43.983253    19.135042    -76.082390    3.895354    -26.884594    -11.155146    14.233405    -25.908487    5.675513    5.125454    -0.613352    23.869856    38.795502    3.398994    64.588097    -3.646924    -22.206421    8.739720    1.232991    -22.026623    -7.858138    2.094414    4.486852    3.352895    -4.615170    8.392624    0.059665    5.379360    -3.233970    -2.738768    0.000000    0.000000    0.000000    -4.468778    5.091096    1.836443    7.307351    6.521142    0.923001    -14.352093    -3.235260    -0.334775    0.000000    0.000000    0.000000    
-7.998513    98.851181    149.450577    -0.318588    3.112526    177.711685    -2.959037    -0.477292    0.852827    -2.512403    -14.380513    0.548171    11.826274    22.505775    -1.404204    -3.535032    22.200617    -0.554921    15.053141    1.867580    -19.078632    -43.989544    19.143503    -76.072723    3.893062    -26.894344    -11.155230    14.151568    -25.923454    5.664510    5.115926    -0.663594    23.852116    38.814133    3.376960    64.575317    -3.582923    -22.181124    8.746009    1.208613    -22.004265    -7.876259    2.061515    4.514625    3.311839    -4.618153    8.359278    0.117211    5.406985    -3.203655    -2.789438    0.000000    0.000000    0.000000    -4.501215    5.109417    1.838987    7.314660    6.544517    0.942245    -14.323624    -3.253883    -0.401962    0.000000    0.000000    0.000000    
-8.018026    98.850174    149.424561    -0.318089    3.106794    177.727951    -2.951336    -0.496558    0.851403    -2.532658    -14.348771    0.545431    11.876554    22.446873    -1.411287    -3.545432    22.270187    -0.563281    15.123696    1.876806    -19.092875    -44.052948    19.086716    -76.089783    3.859906    -26.840176    -11.160804    14.085631    -25.877251    5.640408    5.151191    -0.687108    23.846563    38.779530    3.390736    64.562988    -3.596734    -22.171469    8.734351    1.178210    -21.992577    -7.932037    2.051560    4.528980    3.319381    -4.614421    8.351828    0.120001    5.390144    -3.229798    -2.824916    0.000000    0.000000    0.000000    -4.509604    5.114336    1.856501    7.317872    6.548452    0.894633    -14.338194    -3.251459    -0.385962    0.000000    0.000000    0.000000    
-8.042814    98.850723    149.403336    -0.331321    3.096500    177.744278    -2.935860    -0.491904    0.854075    -2.567252    -14.369051    0.543070    12.009394    22.460955    -1.441899    -3.699688    22.273764    -0.576731    15.131879    1.856300    -19.108904    -44.062157    19.090975    -76.077095    3.853558    -26.833471    -11.152067    14.057489    -25.873022    5.636350    5.151601    -0.686102    23.822775    38.778076    3.389136    64.572670    -3.598372    -22.143591    8.703604    1.212876    -21.967775    -7.944442    2.018353    4.527164    3.316337    -4.607692    8.341054    0.164164    5.393659    -3.199841    -2.870546    0.000000    0.000000    0.000000    -4.534371    5.105876    1.850320    7.325517    6.568877    0.889816    -14.339865    -3.252673    -0.423858    0.000000    0.000000    0.000000    
-8.065963    98.851898    149.378830    -0.348110    3.098543    177.773117    -2.943815    -0.495008    0.845275    -2.574600    -14.357797    0.533674    12.033070    22.475649    -1.443168    -3.705296    22.253092    -0.575353    15.175157    1.855436    -19.121407    -44.125507    19.055983    -76.058060    3.787179    -26.852119    -11.208185    14.161614    -25.882021    5.719234    5.161737    -0.706337    23.798368    38.766678    3.391789    64.576172    -3.559815    -22.115156    8.695515    1.167212    -21.939632    -7.975665    1.986339    4.533990    3.319128    -4.589916    8.355549    0.126396    5.418725    -3.198423    -2.861797    0.000000    0.000000    0.000000    -4.556046    5.116391    1.794489    7.309410    6.588407    0.886328    -14.324149    -3.271122    -0.408919    0.000000    0.000000    0.000000    
-8.083478    98.850456    149.355392    -0.360276    3.106564    177.779495    -2.912352    -0.468984    0.826638    -2.607058    -14.376068    0.509774    11.998123    22.459272    -1.420060    -3.704142    22.296494    -0.553830    15.139788    1.860378    -19.064976    -43.982346    19.131086    -76.081055    3.865844    -26.911343    -11.209756    14.114240    -25.930302    5.778519    5.142299    -0.692235    23.835224    38.793144    3.399948    64.598244    -3.583422    -22.135929    8.705273    1.136337    -21.956888    -8.017751    1.966882    4.538848    3.337726    -4.591143    8.397687    0.031602    5.432507    -3.215657    -2.807033    0.000000    0.000000    0.000000    -4.574201    5.126398    1.805957    7.296456    6.615716    0.907999    -14.325017    -3.297092    -0.445449    0.000000    0.000000    0.000000    
-8.110039    98.852631    149.337982    -0.386531    3.082358    177.795349    -2.911999    -0.492846    0.821704    -2.621043    -14.373171    0.503688    11.982426    22.444921    -1.415817    -3.679523    22.333902    -0.552160    15.135842    1.852878    -19.080441    -44.007030    19.121254    -76.052834    3.863564    -26.885914    -11.208473    14.076130    -25.914787    5.705590    5.146141    -0.681253    23.841866    38.774643    3.372448    64.603500    -3.558638    -22.141056    8.707638    1.130372    -21.963375    -8.024527    1.933647    4.514704    3.228448    -4.619342    8.405885    0.064750    5.430264    -3.208694    -2.731912    0.000000    0.000000    0.000000    -4.615575    5.100324    1.794584    7.311244    6.643295    0.901064    -14.337390    -3.301604    -0.472514    0.000000    0.000000    0.000000    
-8.133345    98.849602    149.316727    -0.402448    3.087257    177.806625    -2.950409    -0.478361    0.819918    -2.550854    -14.369814    0.510680    11.938928    22.407225    -1.407715    -3.650887    22.392591    -0.550310    15.097347    1.864391    -19.104259    -44.063644    19.067595    -76.029320    3.820054    -26.862858    -11.216958    14.075687    -25.905809    5.609669    5.105791    -0.679738    23.819693    38.739704    3.407367    64.635658    -3.609925    -22.170483    8.705970    1.141023    -21.989693    -7.997567    1.904107    4.528530    3.206560    -4.621201    8.403212    0.128100    5.436976    -3.208635    -2.796146    0.000000    0.000000    0.000000    -4.646058    5.097806    1.803964    7.321397    6.690687    0.897690    -14.342994    -3.335349    -0.511685    0.000000    0.000000    0.000000    
-8.156610    98.845551    149.300125    -0.410736    3.085469    177.822571    -2.960903    -0.457196    0.806607    -2.507379    -14.369331    0.502296    11.890548    22.366858    -1.401018    -3.644977    22.423134    -0.550233    15.069304    1.849836    -19.061775    -44.055126    19.080101    -76.046829    3.811024    -26.893051    -11.226065    14.037960    -25.945007    5.550536    5.050933    -0.670640    23.838230    38.746468    3.383361    64.647736    -3.580398    -22.230850    8.778848    1.038701    -22.043934    -8.050806    1.883713    4.527330    3.182092    -4.630642    8.409263    0.185352    5.454939    -3.203964    -2.829642    0.000000    0.000000    0.000000    -4.659644    5.082190    1.757326    7.306745    6.754550    0.900089    -14.328120    -3.386082    -0.506744    0.000000    0.000000    0.000000    
-8.174318    98.846146    149.284653    -0.419057    3.077912    177.838058    -2.969049    -0.443282    0.801054    -2.510662    -14.393556    0.495463    11.901999    22.418066    -1.406338    -3.622550    22.358616    -0.552657    15.080669    1.862911    -19.087215    -43.936920    19.118778    -76.093155    3.868423    -27.033413    -11.210596    14.091862    -26.074438    5.596692    5.068334    -0.659969    23.837547    38.731339    3.368074    64.629814    -3.598529    -22.171062    8.791007    1.182506    -21.991089    -7.977649    1.864393    4.512125    3.231241    -4.611214    8.444376    0.131745    5.456928    -3.208822    -2.841399    0.000000    0.000000    0.000000    -4.666620    5.060146    1.755452    7.297102    6.804247    0.890786    -14.339984    -3.392844    -0.537770    0.000000    0.000000    0.000000    
-8.195784    98.841270    149.271835    -0.431210    3.049153    177.851807    -2.967487    -0.450592    0.800387    -2.508128    -14.424151    0.494645    11.857834    22.481295    -1.419700    -3.566655    22.285662    -0.567505    15.042083    1.871413    -19.174231    -44.066956    19.006174    -75.965134    3.751361    -27.014874    -11.302846    14.202245    -26.055140    5.625825    5.065948    -0.647387    23.837374    38.712193    3.371529    64.622299    -3.575602    -22.273266    8.842353    1.076099    -22.086618    -7.967902    1.849453    4.486097    3.252061    -4.619949    8.458141    0.004659    5.493176    -3.237598    -2.778622    0.000000    0.000000    0.000000    -4.692231    5.019757    1.761546    7.302965    6.842787    0.881662    -14.345948    -3.416662    -0.567434    0.000000    0.000000    0.000000    
